<svg xmlns="http://www.w3.org/2000/svg" xmlns:xlink="http://www.w3.org/1999/xlink" width="1280" zoomAndPan="magnify" viewBox="0 0 960 959.999988" height="1280" preserveAspectRatio="xMidYMid meet" version="1.0"><defs><g/><clipPath id="26471479c6"><path d="M 426 310.078125 L 634 310.078125 L 634 604 L 426 604 Z M 426 310.078125 " clip-rule="nonzero"/></clipPath><clipPath id="6f3c79f3c1"><path d="M 429 548 L 703.597656 548 L 703.597656 649.828125 L 429 649.828125 Z M 429 548 " clip-rule="nonzero"/></clipPath><clipPath id="43ba003935"><path d="M 319.597656 548 L 488 548 L 488 649.828125 L 319.597656 649.828125 Z M 319.597656 548 " clip-rule="nonzero"/></clipPath></defs><path fill="#60b7fe" d="M 481.542969 322.109375 C 565.21875 322.109375 633.050781 389.921875 633.050781 473.578125 C 633.050781 528.410156 603.90625 576.4375 560.257812 603.023438 L 402.828125 603.023438 C 359.183594 576.4375 330.039062 528.410156 330.039062 473.578125 C 330.039062 389.921875 397.867188 322.109375 481.542969 322.109375 Z M 481.542969 365.890625 C 422.054688 365.890625 373.832031 414.105469 373.832031 473.578125 C 373.832031 533.050781 422.058594 581.265625 481.542969 581.265625 C 541.03125 581.265625 589.257812 533.050781 589.257812 473.578125 C 589.257812 414.105469 541.03125 365.890625 481.542969 365.890625 Z M 481.542969 365.890625 " fill-opacity="1" fill-rule="evenodd"/><g clip-path="url(#26471479c6)"><path fill="#ffbf31" d="M 550.25 310.117188 L 542.359375 334.824219 C 595.75 358.242188 633.050781 411.550781 633.050781 473.578125 C 633.050781 528.410156 603.90625 576.4375 560.257812 603.023438 L 426.007812 603.023438 L 426.007812 567.484375 L 426.53125 566.167969 C 442.632812 575.753906 461.445312 581.265625 481.542969 581.265625 C 541.03125 581.265625 589.257812 533.050781 589.257812 473.578125 C 589.257812 431.105469 564.660156 394.378906 528.933594 376.851562 L 522.886719 400.007812 L 477.449219 343.402344 Z M 550.25 310.117188 " fill-opacity="1" fill-rule="evenodd"/></g><g clip-path="url(#6f3c79f3c1)"><path fill="#19cfba" d="M 429.261719 578.710938 L 641.199219 578.710938 L 641.199219 548.367188 L 703.59375 599.078125 L 641.199219 649.792969 L 641.199219 619.449219 L 429.261719 619.449219 Z M 429.261719 578.710938 " fill-opacity="1" fill-rule="evenodd"/></g><path fill="#ada0ad" d="M 505.246094 414.238281 C 512.265625 416.871094 518.730469 420.640625 524.417969 425.324219 L 546.351562 420.664062 C 547.171875 420.488281 547.972656 420.847656 548.394531 421.570312 L 563.363281 447.496094 C 563.785156 448.21875 563.691406 449.09375 563.128906 449.71875 L 548.136719 466.367188 C 549.347656 473.703125 549.347656 481.175781 548.132812 488.511719 L 563.128906 505.160156 C 563.691406 505.785156 563.785156 506.660156 563.363281 507.382812 L 548.394531 533.308594 C 547.972656 534.035156 547.171875 534.390625 546.351562 534.21875 L 524.425781 529.558594 C 518.738281 534.242188 512.269531 538.011719 505.246094 540.644531 L 498.324219 561.941406 C 498.066406 562.734375 497.351562 563.253906 496.515625 563.253906 L 466.574219 563.253906 C 465.734375 563.253906 465.023438 562.734375 464.765625 561.941406 L 457.84375 540.640625 C 450.820312 538.007812 444.355469 534.238281 438.671875 529.554688 L 416.738281 534.214844 C 415.917969 534.390625 415.113281 534.035156 414.695312 533.308594 L 399.722656 507.382812 C 399.304688 506.65625 399.394531 505.78125 399.957031 505.160156 L 414.949219 488.511719 C 413.742188 481.183594 413.742188 473.695312 414.949219 466.363281 L 399.957031 449.714844 C 399.394531 449.09375 399.304688 448.21875 399.722656 447.492188 L 414.695312 421.570312 C 415.113281 420.84375 415.917969 420.484375 416.738281 420.660156 L 438.671875 425.320312 C 444.355469 420.640625 450.820312 416.871094 457.84375 414.238281 L 464.765625 392.9375 C 465.023438 392.140625 465.734375 391.625 466.574219 391.625 L 496.515625 391.625 C 497.351562 391.625 498.066406 392.140625 498.324219 392.9375 Z M 481.542969 445.117188 C 463.6875 445.117188 449.210938 459.585938 449.210938 477.441406 C 449.210938 495.292969 463.6875 509.761719 481.542969 509.761719 C 499.398438 509.761719 513.875 495.292969 513.875 477.441406 C 513.875 459.585938 499.402344 445.117188 481.542969 445.117188 Z M 481.542969 445.117188 " fill-opacity="1" fill-rule="evenodd"/><g clip-path="url(#43ba003935)"><path fill="#fa6e85" d="M 319.605469 578.710938 L 425.171875 578.710938 L 425.171875 548.367188 L 487.5625 599.078125 L 425.171875 649.792969 L 425.171875 619.449219 L 319.605469 619.449219 Z M 319.605469 578.710938 " fill-opacity="1" fill-rule="evenodd"/></g><g fill="#000000" fill-opacity="1"><g transform="translate(326.430751, 692.119903)"><g><path d="M 22.65625 0 L 20.421875 -7.3125 L 9.234375 -7.3125 L 7.015625 0 L 0 0 L 10.828125 -30.828125 L 18.796875 -30.828125 L 29.671875 0 Z M 18.875 -12.765625 C 16.820312 -19.390625 15.664062 -23.132812 15.40625 -24 C 15.144531 -24.863281 14.957031 -25.550781 14.84375 -26.0625 C 14.382812 -24.269531 13.0625 -19.835938 10.875 -12.765625 Z M 18.875 -12.765625 "/></g></g></g><g fill="#000000" fill-opacity="1"><g transform="translate(356.09554, 692.119903)"><g><path d="M 23.78125 -23.46875 L 23.78125 -20.21875 L 20.109375 -19.28125 C 20.785156 -18.226562 21.125 -17.050781 21.125 -15.75 C 21.125 -13.226562 20.242188 -11.265625 18.484375 -9.859375 C 16.734375 -8.453125 14.296875 -7.75 11.171875 -7.75 L 10.015625 -7.8125 L 9.078125 -7.921875 C 8.410156 -7.410156 8.078125 -6.847656 8.078125 -6.234375 C 8.078125 -5.304688 9.253906 -4.84375 11.609375 -4.84375 L 15.59375 -4.84375 C 18.175781 -4.84375 20.140625 -4.289062 21.484375 -3.1875 C 22.835938 -2.082031 23.515625 -0.457031 23.515625 1.6875 C 23.515625 4.425781 22.367188 6.550781 20.078125 8.0625 C 17.796875 9.570312 14.507812 10.328125 10.21875 10.328125 C 6.945312 10.328125 4.445312 9.753906 2.71875 8.609375 C 0.988281 7.472656 0.125 5.878906 0.125 3.828125 C 0.125 2.410156 0.5625 1.222656 1.4375 0.265625 C 2.320312 -0.679688 3.617188 -1.359375 5.328125 -1.765625 C 4.671875 -2.046875 4.097656 -2.503906 3.609375 -3.140625 C 3.117188 -3.773438 2.875 -4.453125 2.875 -5.171875 C 2.875 -6.066406 3.132812 -6.8125 3.65625 -7.40625 C 4.175781 -8 4.925781 -8.582031 5.90625 -9.15625 C 4.664062 -9.6875 3.6875 -10.539062 2.96875 -11.71875 C 2.25 -12.894531 1.890625 -14.28125 1.890625 -15.875 C 1.890625 -18.4375 2.722656 -20.414062 4.390625 -21.8125 C 6.054688 -23.21875 8.4375 -23.921875 11.53125 -23.921875 C 12.1875 -23.921875 12.960938 -23.859375 13.859375 -23.734375 C 14.765625 -23.617188 15.34375 -23.53125 15.59375 -23.46875 Z M 5.671875 3.3125 C 5.671875 4.195312 6.09375 4.890625 6.9375 5.390625 C 7.78125 5.898438 8.96875 6.15625 10.5 6.15625 C 12.789062 6.15625 14.585938 5.835938 15.890625 5.203125 C 17.191406 4.578125 17.84375 3.71875 17.84375 2.625 C 17.84375 1.738281 17.457031 1.128906 16.6875 0.796875 C 15.914062 0.460938 14.726562 0.296875 13.125 0.296875 L 9.8125 0.296875 C 8.632812 0.296875 7.648438 0.570312 6.859375 1.125 C 6.066406 1.675781 5.671875 2.40625 5.671875 3.3125 Z M 8 -15.796875 C 8 -14.515625 8.289062 -13.503906 8.875 -12.765625 C 9.457031 -12.023438 10.34375 -11.65625 11.53125 -11.65625 C 12.726562 -11.65625 13.609375 -12.023438 14.171875 -12.765625 C 14.734375 -13.503906 15.015625 -14.515625 15.015625 -15.796875 C 15.015625 -18.617188 13.851562 -20.03125 11.53125 -20.03125 C 9.175781 -20.03125 8 -18.617188 8 -15.796875 Z M 8 -15.796875 "/></g></g></g><g fill="#000000" fill-opacity="1"><g transform="translate(380.385818, 692.119903)"><g><path d="M 3.09375 -29.546875 C 3.09375 -31.628906 4.253906 -32.671875 6.578125 -32.671875 C 8.898438 -32.671875 10.0625 -31.628906 10.0625 -29.546875 C 10.0625 -28.546875 9.769531 -27.769531 9.1875 -27.21875 C 8.601562 -26.664062 7.734375 -26.390625 6.578125 -26.390625 C 4.253906 -26.390625 3.09375 -27.441406 3.09375 -29.546875 Z M 9.765625 0 L 3.359375 0 L 3.359375 -23.46875 L 9.765625 -23.46875 Z M 9.765625 0 "/></g></g></g><g fill="#000000" fill-opacity="1"><g transform="translate(393.50719, 692.119903)"><g><path d="M 9.765625 0 L 3.359375 0 L 3.359375 -32.671875 L 9.765625 -32.671875 Z M 9.765625 0 "/></g></g></g><g fill="#000000" fill-opacity="1"><g transform="translate(406.628561, 692.119903)"><g><path d="M 13.078125 -19.359375 C 11.722656 -19.359375 10.660156 -18.925781 9.890625 -18.0625 C 9.117188 -17.207031 8.675781 -15.988281 8.5625 -14.40625 L 17.546875 -14.40625 C 17.523438 -15.988281 17.113281 -17.207031 16.3125 -18.0625 C 15.519531 -18.925781 14.441406 -19.359375 13.078125 -19.359375 Z M 13.984375 0.421875 C 10.203125 0.421875 7.25 -0.617188 5.125 -2.703125 C 3 -4.796875 1.9375 -7.75 1.9375 -11.5625 C 1.9375 -15.5 2.914062 -18.539062 4.875 -20.6875 C 6.84375 -22.84375 9.5625 -23.921875 13.03125 -23.921875 C 16.351562 -23.921875 18.9375 -22.972656 20.78125 -21.078125 C 22.632812 -19.191406 23.5625 -16.582031 23.5625 -13.25 L 23.5625 -10.140625 L 8.421875 -10.140625 C 8.492188 -8.316406 9.03125 -6.894531 10.03125 -5.875 C 11.039062 -4.851562 12.457031 -4.34375 14.28125 -4.34375 C 15.6875 -4.34375 17.019531 -4.488281 18.28125 -4.78125 C 19.539062 -5.082031 20.859375 -5.550781 22.234375 -6.1875 L 22.234375 -1.234375 C 21.117188 -0.679688 19.921875 -0.269531 18.640625 0 C 17.367188 0.28125 15.816406 0.421875 13.984375 0.421875 Z M 13.984375 0.421875 "/></g></g></g><g fill="#000000" fill-opacity="1"><g transform="translate(432.031526, 692.119903)"><g/></g></g><g fill="#000000" fill-opacity="1"><g transform="translate(443.200432, 692.119903)"><g><path d="M 16.859375 0 L 9.46875 -24.078125 L 9.28125 -24.078125 C 9.539062 -19.179688 9.671875 -15.914062 9.671875 -14.28125 L 9.671875 0 L 3.859375 0 L 3.859375 -30.703125 L 12.71875 -30.703125 L 19.984375 -7.21875 L 20.109375 -7.21875 L 27.8125 -30.703125 L 36.6875 -30.703125 L 36.6875 0 L 30.609375 0 L 30.609375 -14.53125 C 30.609375 -15.21875 30.617188 -16.007812 30.640625 -16.90625 C 30.660156 -17.800781 30.753906 -20.179688 30.921875 -24.046875 L 30.734375 -24.046875 L 22.828125 0 Z M 16.859375 0 "/></g></g></g><g fill="#000000" fill-opacity="1"><g transform="translate(483.74021, 692.119903)"><g><path d="M 13.078125 -19.359375 C 11.722656 -19.359375 10.660156 -18.925781 9.890625 -18.0625 C 9.117188 -17.207031 8.675781 -15.988281 8.5625 -14.40625 L 17.546875 -14.40625 C 17.523438 -15.988281 17.113281 -17.207031 16.3125 -18.0625 C 15.519531 -18.925781 14.441406 -19.359375 13.078125 -19.359375 Z M 13.984375 0.421875 C 10.203125 0.421875 7.25 -0.617188 5.125 -2.703125 C 3 -4.796875 1.9375 -7.75 1.9375 -11.5625 C 1.9375 -15.5 2.914062 -18.539062 4.875 -20.6875 C 6.84375 -22.84375 9.5625 -23.921875 13.03125 -23.921875 C 16.351562 -23.921875 18.9375 -22.972656 20.78125 -21.078125 C 22.632812 -19.191406 23.5625 -16.582031 23.5625 -13.25 L 23.5625 -10.140625 L 8.421875 -10.140625 C 8.492188 -8.316406 9.03125 -6.894531 10.03125 -5.875 C 11.039062 -4.851562 12.457031 -4.34375 14.28125 -4.34375 C 15.6875 -4.34375 17.019531 -4.488281 18.28125 -4.78125 C 19.539062 -5.082031 20.859375 -5.550781 22.234375 -6.1875 L 22.234375 -1.234375 C 21.117188 -0.679688 19.921875 -0.269531 18.640625 0 C 17.367188 0.28125 15.816406 0.421875 13.984375 0.421875 Z M 13.984375 0.421875 "/></g></g></g><g fill="#000000" fill-opacity="1"><g transform="translate(509.143175, 692.119903)"><g><path d="M 13.25 -4.6875 C 14.363281 -4.6875 15.707031 -4.929688 17.28125 -5.421875 L 17.28125 -0.65625 C 15.6875 0.0625 13.726562 0.421875 11.40625 0.421875 C 8.84375 0.421875 6.972656 -0.222656 5.796875 -1.515625 C 4.628906 -2.816406 4.046875 -4.757812 4.046875 -7.34375 L 4.046875 -18.671875 L 0.984375 -18.671875 L 0.984375 -21.375 L 4.515625 -23.515625 L 6.359375 -28.46875 L 10.453125 -28.46875 L 10.453125 -23.46875 L 17.03125 -23.46875 L 17.03125 -18.671875 L 10.453125 -18.671875 L 10.453125 -7.34375 C 10.453125 -6.4375 10.707031 -5.765625 11.21875 -5.328125 C 11.726562 -4.898438 12.40625 -4.6875 13.25 -4.6875 Z M 13.25 -4.6875 "/></g></g></g><g fill="#000000" fill-opacity="1"><g transform="translate(527.807023, 692.119903)"><g><path d="M 8.46875 -11.78125 C 8.46875 -9.457031 8.847656 -7.695312 9.609375 -6.5 C 10.367188 -5.3125 11.609375 -4.71875 13.328125 -4.71875 C 15.035156 -4.71875 16.265625 -5.304688 17.015625 -6.484375 C 17.765625 -7.671875 18.140625 -9.4375 18.140625 -11.78125 C 18.140625 -14.101562 17.757812 -15.84375 17 -17 C 16.25 -18.164062 15.015625 -18.75 13.296875 -18.75 C 11.585938 -18.75 10.351562 -18.171875 9.59375 -17.015625 C 8.84375 -15.859375 8.46875 -14.113281 8.46875 -11.78125 Z M 24.6875 -11.78125 C 24.6875 -7.957031 23.675781 -4.96875 21.65625 -2.8125 C 19.644531 -0.65625 16.84375 0.421875 13.25 0.421875 C 11 0.421875 9.007812 -0.0703125 7.28125 -1.0625 C 5.5625 -2.050781 4.238281 -3.46875 3.3125 -5.3125 C 2.394531 -7.15625 1.9375 -9.3125 1.9375 -11.78125 C 1.9375 -15.613281 2.9375 -18.59375 4.9375 -20.71875 C 6.9375 -22.851562 9.75 -23.921875 13.375 -23.921875 C 15.625 -23.921875 17.609375 -23.425781 19.328125 -22.4375 C 21.054688 -21.457031 22.378906 -20.050781 23.296875 -18.21875 C 24.222656 -16.382812 24.6875 -14.238281 24.6875 -11.78125 Z M 24.6875 -11.78125 "/></g></g></g><g fill="#000000" fill-opacity="1"><g transform="translate(554.427649, 692.119903)"><g><path d="M 10.796875 0.421875 C 8.035156 0.421875 5.867188 -0.644531 4.296875 -2.78125 C 2.722656 -4.925781 1.9375 -7.894531 1.9375 -11.6875 C 1.9375 -15.539062 2.734375 -18.539062 4.328125 -20.6875 C 5.929688 -22.84375 8.140625 -23.921875 10.953125 -23.921875 C 13.910156 -23.921875 16.164062 -22.769531 17.71875 -20.46875 L 17.9375 -20.46875 C 17.613281 -22.21875 17.453125 -23.78125 17.453125 -25.15625 L 17.453125 -32.671875 L 23.875 -32.671875 L 23.875 0 L 18.953125 0 L 17.71875 -3.046875 L 17.453125 -3.046875 C 15.992188 -0.734375 13.773438 0.421875 10.796875 0.421875 Z M 13.03125 -4.6875 C 14.675781 -4.6875 15.878906 -5.160156 16.640625 -6.109375 C 17.398438 -7.054688 17.816406 -8.671875 17.890625 -10.953125 L 17.890625 -11.65625 C 17.890625 -14.175781 17.5 -15.976562 16.71875 -17.0625 C 15.945312 -18.15625 14.6875 -18.703125 12.9375 -18.703125 C 11.507812 -18.703125 10.398438 -18.097656 9.609375 -16.890625 C 8.816406 -15.679688 8.421875 -13.921875 8.421875 -11.609375 C 8.421875 -9.296875 8.816406 -7.5625 9.609375 -6.40625 C 10.410156 -5.257812 11.550781 -4.6875 13.03125 -4.6875 Z M 13.03125 -4.6875 "/></g></g></g><g fill="#000000" fill-opacity="1"><g transform="translate(581.636113, 692.119903)"><g><path d="M 8.46875 -11.78125 C 8.46875 -9.457031 8.847656 -7.695312 9.609375 -6.5 C 10.367188 -5.3125 11.609375 -4.71875 13.328125 -4.71875 C 15.035156 -4.71875 16.265625 -5.304688 17.015625 -6.484375 C 17.765625 -7.671875 18.140625 -9.4375 18.140625 -11.78125 C 18.140625 -14.101562 17.757812 -15.84375 17 -17 C 16.25 -18.164062 15.015625 -18.75 13.296875 -18.75 C 11.585938 -18.75 10.351562 -18.171875 9.59375 -17.015625 C 8.84375 -15.859375 8.46875 -14.113281 8.46875 -11.78125 Z M 24.6875 -11.78125 C 24.6875 -7.957031 23.675781 -4.96875 21.65625 -2.8125 C 19.644531 -0.65625 16.84375 0.421875 13.25 0.421875 C 11 0.421875 9.007812 -0.0703125 7.28125 -1.0625 C 5.5625 -2.050781 4.238281 -3.46875 3.3125 -5.3125 C 2.394531 -7.15625 1.9375 -9.3125 1.9375 -11.78125 C 1.9375 -15.613281 2.9375 -18.59375 4.9375 -20.71875 C 6.9375 -22.851562 9.75 -23.921875 13.375 -23.921875 C 15.625 -23.921875 17.609375 -23.425781 19.328125 -22.4375 C 21.054688 -21.457031 22.378906 -20.050781 23.296875 -18.21875 C 24.222656 -16.382812 24.6875 -14.238281 24.6875 -11.78125 Z M 24.6875 -11.78125 "/></g></g></g><g fill="#000000" fill-opacity="1"><g transform="translate(608.25674, 692.119903)"><g><path d="M 9.765625 0 L 3.359375 0 L 3.359375 -32.671875 L 9.765625 -32.671875 Z M 9.765625 0 "/></g></g></g><g fill="#000000" fill-opacity="1"><g transform="translate(621.378123, 692.119903)"><g><path d="M 8.46875 -11.78125 C 8.46875 -9.457031 8.847656 -7.695312 9.609375 -6.5 C 10.367188 -5.3125 11.609375 -4.71875 13.328125 -4.71875 C 15.035156 -4.71875 16.265625 -5.304688 17.015625 -6.484375 C 17.765625 -7.671875 18.140625 -9.4375 18.140625 -11.78125 C 18.140625 -14.101562 17.757812 -15.84375 17 -17 C 16.25 -18.164062 15.015625 -18.75 13.296875 -18.75 C 11.585938 -18.75 10.351562 -18.171875 9.59375 -17.015625 C 8.84375 -15.859375 8.46875 -14.113281 8.46875 -11.78125 Z M 24.6875 -11.78125 C 24.6875 -7.957031 23.675781 -4.96875 21.65625 -2.8125 C 19.644531 -0.65625 16.84375 0.421875 13.25 0.421875 C 11 0.421875 9.007812 -0.0703125 7.28125 -1.0625 C 5.5625 -2.050781 4.238281 -3.46875 3.3125 -5.3125 C 2.394531 -7.15625 1.9375 -9.3125 1.9375 -11.78125 C 1.9375 -15.613281 2.9375 -18.59375 4.9375 -20.71875 C 6.9375 -22.851562 9.75 -23.921875 13.375 -23.921875 C 15.625 -23.921875 17.609375 -23.425781 19.328125 -22.4375 C 21.054688 -21.457031 22.378906 -20.050781 23.296875 -18.21875 C 24.222656 -16.382812 24.6875 -14.238281 24.6875 -11.78125 Z M 24.6875 -11.78125 "/></g></g></g><g fill="#000000" fill-opacity="1"><g transform="translate(647.99875, 692.119903)"><g><path d="M 23.78125 -23.46875 L 23.78125 -20.21875 L 20.109375 -19.28125 C 20.785156 -18.226562 21.125 -17.050781 21.125 -15.75 C 21.125 -13.226562 20.242188 -11.265625 18.484375 -9.859375 C 16.734375 -8.453125 14.296875 -7.75 11.171875 -7.75 L 10.015625 -7.8125 L 9.078125 -7.921875 C 8.410156 -7.410156 8.078125 -6.847656 8.078125 -6.234375 C 8.078125 -5.304688 9.253906 -4.84375 11.609375 -4.84375 L 15.59375 -4.84375 C 18.175781 -4.84375 20.140625 -4.289062 21.484375 -3.1875 C 22.835938 -2.082031 23.515625 -0.457031 23.515625 1.6875 C 23.515625 4.425781 22.367188 6.550781 20.078125 8.0625 C 17.796875 9.570312 14.507812 10.328125 10.21875 10.328125 C 6.945312 10.328125 4.445312 9.753906 2.71875 8.609375 C 0.988281 7.472656 0.125 5.878906 0.125 3.828125 C 0.125 2.410156 0.5625 1.222656 1.4375 0.265625 C 2.320312 -0.679688 3.617188 -1.359375 5.328125 -1.765625 C 4.671875 -2.046875 4.097656 -2.503906 3.609375 -3.140625 C 3.117188 -3.773438 2.875 -4.453125 2.875 -5.171875 C 2.875 -6.066406 3.132812 -6.8125 3.65625 -7.40625 C 4.175781 -8 4.925781 -8.582031 5.90625 -9.15625 C 4.664062 -9.6875 3.6875 -10.539062 2.96875 -11.71875 C 2.25 -12.894531 1.890625 -14.28125 1.890625 -15.875 C 1.890625 -18.4375 2.722656 -20.414062 4.390625 -21.8125 C 6.054688 -23.21875 8.4375 -23.921875 11.53125 -23.921875 C 12.1875 -23.921875 12.960938 -23.859375 13.859375 -23.734375 C 14.765625 -23.617188 15.34375 -23.53125 15.59375 -23.46875 Z M 5.671875 3.3125 C 5.671875 4.195312 6.09375 4.890625 6.9375 5.390625 C 7.78125 5.898438 8.96875 6.15625 10.5 6.15625 C 12.789062 6.15625 14.585938 5.835938 15.890625 5.203125 C 17.191406 4.578125 17.84375 3.71875 17.84375 2.625 C 17.84375 1.738281 17.457031 1.128906 16.6875 0.796875 C 15.914062 0.460938 14.726562 0.296875 13.125 0.296875 L 9.8125 0.296875 C 8.632812 0.296875 7.648438 0.570312 6.859375 1.125 C 6.066406 1.675781 5.671875 2.40625 5.671875 3.3125 Z M 8 -15.796875 C 8 -14.515625 8.289062 -13.503906 8.875 -12.765625 C 9.457031 -12.023438 10.34375 -11.65625 11.53125 -11.65625 C 12.726562 -11.65625 13.609375 -12.023438 14.171875 -12.765625 C 14.734375 -13.503906 15.015625 -14.515625 15.015625 -15.796875 C 15.015625 -18.617188 13.851562 -20.03125 11.53125 -20.03125 C 9.175781 -20.03125 8 -18.617188 8 -15.796875 Z M 8 -15.796875 "/></g></g></g><g fill="#000000" fill-opacity="1"><g transform="translate(672.289039, 692.119903)"><g><path d="M 0 -23.46875 L 7.015625 -23.46875 L 11.4375 -10.265625 C 11.820312 -9.117188 12.082031 -7.757812 12.21875 -6.1875 L 12.34375 -6.1875 C 12.5 -7.632812 12.800781 -8.992188 13.25 -10.265625 L 17.59375 -23.46875 L 24.453125 -23.46875 L 14.53125 3 C 13.625 5.445312 12.328125 7.28125 10.640625 8.5 C 8.953125 9.71875 6.976562 10.328125 4.71875 10.328125 C 3.613281 10.328125 2.53125 10.207031 1.46875 9.96875 L 1.46875 4.890625 C 2.238281 5.078125 3.078125 5.171875 3.984375 5.171875 C 5.117188 5.171875 6.109375 4.820312 6.953125 4.125 C 7.804688 3.4375 8.46875 2.390625 8.9375 0.984375 L 9.328125 -0.171875 Z M 0 -23.46875 "/></g></g></g></svg>