<svg xmlns="http://www.w3.org/2000/svg" xmlns:xlink="http://www.w3.org/1999/xlink" width="2245" zoomAndPan="magnify" viewBox="0 0 1683.75 2384.249895" height="3179" preserveAspectRatio="xMidYMid meet" version="1.0"><defs><g/><clipPath id="2f877c81d6"><path d="M 687.238281 418.199219 L 834.191406 418.199219 L 834.191406 565.152344 L 687.238281 565.152344 Z M 687.238281 418.199219 " clip-rule="nonzero"/></clipPath><clipPath id="170996091f"><path d="M 856.679688 421 L 997.636719 421 L 997.636719 563 L 856.679688 563 Z M 856.679688 421 " clip-rule="nonzero"/></clipPath></defs><g clip-path="url(#2f877c81d6)"><path fill="#f03c2e" d="M 831.417969 485.132812 L 767.257812 420.972656 C 766.820312 420.535156 766.34375 420.140625 765.824219 419.796875 C 765.308594 419.449219 764.765625 419.160156 764.191406 418.921875 C 763.617188 418.683594 763.023438 418.503906 762.414062 418.382812 C 761.804688 418.261719 761.191406 418.199219 760.570312 418.199219 C 759.949219 418.199219 759.332031 418.261719 758.722656 418.382812 C 758.113281 418.503906 757.519531 418.683594 756.949219 418.921875 C 756.375 419.160156 755.828125 419.449219 755.3125 419.796875 C 754.792969 420.140625 754.316406 420.535156 753.878906 420.972656 L 740.558594 434.289062 L 757.460938 451.191406 C 761.390625 449.8125 765.890625 450.753906 769.023438 453.886719 C 769.769531 454.632812 770.398438 455.46875 770.90625 456.390625 C 771.417969 457.316406 771.789062 458.289062 772.027344 459.320312 C 772.261719 460.347656 772.351562 461.390625 772.296875 462.441406 C 772.238281 463.496094 772.035156 464.519531 771.691406 465.519531 L 787.980469 481.808594 C 791.921875 480.449219 796.464844 481.324219 799.613281 484.480469 C 800.136719 485.003906 800.601562 485.570312 801.015625 486.1875 C 801.425781 486.800781 801.773438 487.449219 802.054688 488.132812 C 802.339844 488.816406 802.554688 489.523438 802.699219 490.246094 C 802.839844 490.972656 802.914062 491.707031 802.914062 492.445312 C 802.914062 493.183594 802.84375 493.917969 802.699219 494.644531 C 802.554688 495.371094 802.339844 496.074219 802.054688 496.757812 C 801.773438 497.441406 801.425781 498.089844 801.015625 498.703125 C 800.605469 499.320312 800.136719 499.890625 799.613281 500.414062 C 799.089844 500.933594 798.523438 501.402344 797.90625 501.8125 C 797.292969 502.222656 796.640625 502.570312 795.957031 502.855469 C 795.273438 503.136719 794.570312 503.351562 793.84375 503.496094 C 793.117188 503.636719 792.386719 503.710938 791.648438 503.710938 C 790.90625 503.710938 790.175781 503.636719 789.449219 503.492188 C 788.722656 503.347656 788.019531 503.132812 787.335938 502.851562 C 786.652344 502.566406 786.003906 502.21875 785.386719 501.808594 C 784.773438 501.398438 784.203125 500.929688 783.683594 500.40625 C 780.375 497.097656 779.558594 492.230469 781.230469 488.160156 L 766.039062 472.96875 L 766.039062 512.941406 C 767.148438 513.492188 768.144531 514.203125 769.023438 515.074219 C 769.546875 515.597656 770.011719 516.164062 770.421875 516.78125 C 770.835938 517.394531 771.179688 518.042969 771.464844 518.726562 C 771.746094 519.410156 771.960938 520.113281 772.105469 520.839844 C 772.25 521.566406 772.320312 522.296875 772.320312 523.035156 C 772.320312 523.777344 772.25 524.507812 772.105469 525.234375 C 771.960938 525.960938 771.746094 526.664062 771.464844 527.347656 C 771.179688 528.03125 770.835938 528.679688 770.421875 529.292969 C 770.011719 529.910156 769.546875 530.476562 769.023438 531 C 768.5 531.523438 767.929688 531.988281 767.316406 532.402344 C 766.703125 532.8125 766.054688 533.15625 765.371094 533.441406 C 764.6875 533.722656 763.980469 533.9375 763.257812 534.082031 C 762.53125 534.226562 761.800781 534.296875 761.058594 534.296875 C 760.320312 534.296875 759.589844 534.226562 758.863281 534.082031 C 758.136719 533.9375 757.433594 533.722656 756.75 533.441406 C 756.066406 533.15625 755.417969 532.8125 754.804688 532.402344 C 754.1875 531.988281 753.621094 531.523438 753.097656 531 C 752.574219 530.476562 752.105469 529.910156 751.695312 529.292969 C 751.285156 528.679688 750.9375 528.03125 750.652344 527.347656 C 750.371094 526.664062 750.15625 525.960938 750.011719 525.234375 C 749.867188 524.507812 749.792969 523.777344 749.792969 523.035156 C 749.792969 522.296875 749.867188 521.566406 750.011719 520.839844 C 750.15625 520.113281 750.371094 519.410156 750.652344 518.726562 C 750.9375 518.042969 751.285156 517.394531 751.695312 516.78125 C 752.105469 516.164062 752.574219 515.597656 753.097656 515.074219 C 754.183594 513.988281 755.394531 513.167969 756.785156 512.617188 L 756.785156 472.269531 C 755.445312 471.71875 754.183594 470.90625 753.097656 469.8125 C 752.304688 469.023438 751.648438 468.132812 751.121094 467.148438 C 750.597656 466.164062 750.226562 465.121094 750.007812 464.027344 C 749.792969 462.929688 749.742188 461.824219 749.855469 460.714844 C 749.96875 459.601562 750.238281 458.53125 750.671875 457.5 L 734.003906 440.839844 L 690.007812 484.789062 C 689.566406 485.226562 689.175781 485.703125 688.828125 486.222656 C 688.484375 486.738281 688.191406 487.285156 687.953125 487.859375 C 687.714844 488.433594 687.535156 489.023438 687.414062 489.632812 C 687.292969 490.242188 687.234375 490.859375 687.234375 491.480469 C 687.234375 492.101562 687.292969 492.71875 687.414062 493.328125 C 687.535156 493.9375 687.714844 494.53125 687.953125 495.105469 C 688.191406 495.679688 688.484375 496.222656 688.828125 496.738281 C 689.175781 497.257812 689.566406 497.734375 690.007812 498.175781 L 754.171875 562.328125 C 754.609375 562.769531 755.089844 563.160156 755.605469 563.503906 C 756.121094 563.851562 756.667969 564.144531 757.242188 564.378906 C 757.816406 564.617188 758.40625 564.796875 759.015625 564.917969 C 759.625 565.039062 760.242188 565.101562 760.863281 565.101562 C 761.484375 565.101562 762.097656 565.039062 762.707031 564.917969 C 763.316406 564.796875 763.910156 564.617188 764.484375 564.378906 C 765.058594 564.144531 765.601562 563.851562 766.121094 563.503906 C 766.636719 563.160156 767.113281 562.769531 767.554688 562.328125 L 831.417969 498.566406 C 831.859375 498.125 832.25 497.648438 832.597656 497.128906 C 832.941406 496.613281 833.234375 496.066406 833.472656 495.492188 C 833.710938 494.917969 833.890625 494.328125 834.011719 493.71875 C 834.132812 493.109375 834.195312 492.492188 834.195312 491.871094 C 834.195312 491.25 834.132812 490.632812 834.011719 490.023438 C 833.890625 489.414062 833.710938 488.824219 833.472656 488.25 C 833.234375 487.675781 832.941406 487.128906 832.597656 486.613281 C 832.25 486.09375 831.859375 485.617188 831.417969 485.179688 " fill-opacity="1" fill-rule="nonzero"/></g><g clip-path="url(#170996091f)"><path fill="#000000" d="M 927.15625 421.136719 C 888.234375 421.136719 856.679688 452.71875 856.679688 491.675781 C 856.679688 530.632812 888.234375 562.21875 927.15625 562.21875 C 966.082031 562.21875 997.636719 530.632812 997.636719 491.675781 C 997.636719 452.71875 966.082031 421.136719 927.15625 421.136719 Z M 868.425781 491.675781 C 868.425781 459.210938 894.722656 432.890625 927.15625 432.890625 C 959.59375 432.890625 985.890625 459.210938 985.890625 491.675781 C 985.890625 518.132812 968.429688 540.503906 944.414062 547.882812 C 945.070312 536 944.84375 528.640625 943.738281 525.804688 C 942.570312 522.808594 941.621094 521.582031 941.046875 520.84375 C 940.675781 520.363281 940.464844 520.089844 940.464844 519.671875 C 940.464844 518.964844 940.960938 518.457031 941.953125 518.136719 C 950.605469 516.222656 956.410156 510.902344 959.363281 502.167969 C 963.453125 490.070312 957.613281 481.273438 955.25 477.714844 C 955.054688 477.421875 954.882812 477.164062 954.742188 476.941406 C 952.90625 474.039062 955.3125 466.976562 958.1875 461.324219 C 948.414062 459.363281 944.683594 463.90625 942.542969 466.511719 C 941.667969 467.578125 941.058594 468.320312 940.414062 468.160156 C 939.835938 468.019531 939.214844 467.746094 938.46875 467.417969 C 936.335938 466.480469 933.1875 465.097656 927.15625 465.097656 C 919.679688 465.097656 914.722656 467.710938 913.964844 468.109375 C 913.898438 468.144531 913.863281 468.160156 913.863281 468.160156 C 909.933594 462.675781 904.351562 460.398438 897.117188 461.324219 C 899.109375 469.292969 899.257812 474.5 897.566406 476.941406 C 895.027344 480.605469 890.265625 489.128906 893.960938 502.167969 C 897.65625 515.210938 911.109375 518.136719 913.671875 518.136719 L 913.6875 518.140625 C 913.890625 518.1875 915.777344 518.59375 915.210938 520.1875 C 915.097656 520.609375 915.023438 521.1875 914.941406 521.839844 C 914.675781 523.925781 914.3125 526.761719 912.3125 527.683594 C 909.6875 528.894531 903.902344 529.554688 901.480469 528.046875 C 900.671875 527.542969 900.09375 526.492188 899.398438 525.222656 C 898 522.6875 896.128906 519.285156 891.011719 517.707031 C 883.335938 515.335938 883.820312 518.46875 885.734375 519.238281 C 886.15625 519.410156 886.714844 519.566406 887.351562 519.75 C 889.613281 520.386719 892.863281 521.308594 894.527344 523.992188 C 895.015625 524.78125 895.519531 525.640625 896.035156 526.523438 C 897.765625 529.496094 899.625 532.679688 901.480469 533.902344 C 903.085938 534.957031 906.929688 535.378906 913.011719 535.167969 C 912.746094 540.917969 912.605469 545.40625 912.589844 548.636719 C 887.199219 542.152344 868.425781 519.109375 868.425781 491.675781 Z M 868.425781 491.675781 " fill-opacity="0.85" fill-rule="evenodd"/></g><g fill="#000000" fill-opacity="1"><g transform="translate(757.381579, 617.251478)"><g><path d="M 9.734375 -10.8125 L 17.375 -10.8125 L 17.375 -0.828125 C 16.132812 -0.421875 14.96875 -0.140625 13.875 0.015625 C 12.78125 0.179688 11.664062 0.265625 10.53125 0.265625 C 7.625 0.265625 5.398438 -0.585938 3.859375 -2.296875 C 2.328125 -4.003906 1.5625 -6.457031 1.5625 -9.65625 C 1.5625 -12.769531 2.453125 -15.195312 4.234375 -16.9375 C 6.015625 -18.675781 8.484375 -19.546875 11.640625 -19.546875 C 13.609375 -19.546875 15.515625 -19.148438 17.359375 -18.359375 L 16 -15.09375 C 14.59375 -15.789062 13.128906 -16.140625 11.609375 -16.140625 C 9.835938 -16.140625 8.421875 -15.546875 7.359375 -14.359375 C 6.296875 -13.171875 5.765625 -11.578125 5.765625 -9.578125 C 5.765625 -7.484375 6.191406 -5.882812 7.046875 -4.78125 C 7.910156 -3.6875 9.160156 -3.140625 10.796875 -3.140625 C 11.640625 -3.140625 12.503906 -3.226562 13.390625 -3.40625 L 13.390625 -7.421875 L 9.734375 -7.421875 Z M 9.734375 -10.8125 "/></g></g><g transform="translate(776.926699, 617.251478)"><g><path d="M 1.9375 -18.53125 C 1.9375 -19.84375 2.664062 -20.5 4.125 -20.5 C 5.582031 -20.5 6.3125 -19.84375 6.3125 -18.53125 C 6.3125 -17.914062 6.128906 -17.429688 5.765625 -17.078125 C 5.398438 -16.734375 4.851562 -16.5625 4.125 -16.5625 C 2.664062 -16.5625 1.9375 -17.21875 1.9375 -18.53125 Z M 6.125 0 L 2.109375 0 L 2.109375 -14.734375 L 6.125 -14.734375 Z M 6.125 0 "/></g></g><g transform="translate(785.163853, 617.251478)"><g><path d="M 8.3125 -2.9375 C 9.019531 -2.9375 9.863281 -3.09375 10.84375 -3.40625 L 10.84375 -0.40625 C 9.84375 0.0390625 8.613281 0.265625 7.15625 0.265625 C 5.550781 0.265625 4.378906 -0.140625 3.640625 -0.953125 C 2.910156 -1.765625 2.546875 -2.984375 2.546875 -4.609375 L 2.546875 -11.71875 L 0.625 -11.71875 L 0.625 -13.40625 L 2.828125 -14.75 L 4 -17.859375 L 6.5625 -17.859375 L 6.5625 -14.734375 L 10.6875 -14.734375 L 10.6875 -11.71875 L 6.5625 -11.71875 L 6.5625 -4.609375 C 6.5625 -4.035156 6.722656 -3.613281 7.046875 -3.34375 C 7.367188 -3.070312 7.789062 -2.9375 8.3125 -2.9375 Z M 8.3125 -2.9375 "/></g></g><g transform="translate(796.880381, 617.251478)"><g/></g><g transform="translate(803.891847, 617.251478)"><g><path d="M 20.234375 0 L 15.265625 0 L 13.75 -1.484375 C 12.070312 -0.316406 10.175781 0.265625 8.0625 0.265625 C 5.914062 0.265625 4.210938 -0.222656 2.953125 -1.203125 C 1.703125 -2.191406 1.078125 -3.523438 1.078125 -5.203125 C 1.078125 -6.410156 1.34375 -7.4375 1.875 -8.28125 C 2.40625 -9.125 3.316406 -9.914062 4.609375 -10.65625 C 3.953125 -11.414062 3.472656 -12.140625 3.171875 -12.828125 C 2.878906 -13.515625 2.734375 -14.269531 2.734375 -15.09375 C 2.734375 -16.425781 3.242188 -17.5 4.265625 -18.3125 C 5.285156 -19.132812 6.648438 -19.546875 8.359375 -19.546875 C 9.992188 -19.546875 11.300781 -19.164062 12.28125 -18.40625 C 13.257812 -17.644531 13.75 -16.625 13.75 -15.34375 C 13.75 -14.300781 13.445312 -13.347656 12.84375 -12.484375 C 12.238281 -11.617188 11.257812 -10.796875 9.90625 -10.015625 L 13.65625 -6.359375 C 14.269531 -7.390625 14.804688 -8.710938 15.265625 -10.328125 L 19.453125 -10.328125 C 19.140625 -9.140625 18.707031 -7.984375 18.15625 -6.859375 C 17.601562 -5.734375 16.972656 -4.734375 16.265625 -3.859375 Z M 5.3125 -5.59375 C 5.3125 -4.832031 5.59375 -4.226562 6.15625 -3.78125 C 6.726562 -3.332031 7.457031 -3.109375 8.34375 -3.109375 C 9.445312 -3.109375 10.441406 -3.375 11.328125 -3.90625 L 6.953125 -8.265625 C 6.441406 -7.878906 6.039062 -7.472656 5.75 -7.046875 C 5.457031 -6.628906 5.3125 -6.144531 5.3125 -5.59375 Z M 10.046875 -14.921875 C 10.046875 -15.390625 9.882812 -15.757812 9.5625 -16.03125 C 9.25 -16.300781 8.84375 -16.4375 8.34375 -16.4375 C 7.75 -16.4375 7.28125 -16.296875 6.9375 -16.015625 C 6.601562 -15.734375 6.4375 -15.332031 6.4375 -14.8125 C 6.4375 -14.039062 6.851562 -13.1875 7.6875 -12.25 C 8.445312 -12.675781 9.03125 -13.09375 9.4375 -13.5 C 9.84375 -13.90625 10.046875 -14.378906 10.046875 -14.921875 Z M 10.046875 -14.921875 "/></g></g><g transform="translate(824.135477, 617.251478)"><g/></g><g transform="translate(831.146943, 617.251478)"><g><path d="M 9.734375 -10.8125 L 17.375 -10.8125 L 17.375 -0.828125 C 16.132812 -0.421875 14.96875 -0.140625 13.875 0.015625 C 12.78125 0.179688 11.664062 0.265625 10.53125 0.265625 C 7.625 0.265625 5.398438 -0.585938 3.859375 -2.296875 C 2.328125 -4.003906 1.5625 -6.457031 1.5625 -9.65625 C 1.5625 -12.769531 2.453125 -15.195312 4.234375 -16.9375 C 6.015625 -18.675781 8.484375 -19.546875 11.640625 -19.546875 C 13.609375 -19.546875 15.515625 -19.148438 17.359375 -18.359375 L 16 -15.09375 C 14.59375 -15.789062 13.128906 -16.140625 11.609375 -16.140625 C 9.835938 -16.140625 8.421875 -15.546875 7.359375 -14.359375 C 6.296875 -13.171875 5.765625 -11.578125 5.765625 -9.578125 C 5.765625 -7.484375 6.191406 -5.882812 7.046875 -4.78125 C 7.910156 -3.6875 9.160156 -3.140625 10.796875 -3.140625 C 11.640625 -3.140625 12.503906 -3.226562 13.390625 -3.40625 L 13.390625 -7.421875 L 9.734375 -7.421875 Z M 9.734375 -10.8125 "/></g></g><g transform="translate(850.692063, 617.251478)"><g><path d="M 1.9375 -18.53125 C 1.9375 -19.84375 2.664062 -20.5 4.125 -20.5 C 5.582031 -20.5 6.3125 -19.84375 6.3125 -18.53125 C 6.3125 -17.914062 6.128906 -17.429688 5.765625 -17.078125 C 5.398438 -16.734375 4.851562 -16.5625 4.125 -16.5625 C 2.664062 -16.5625 1.9375 -17.21875 1.9375 -18.53125 Z M 6.125 0 L 2.109375 0 L 2.109375 -14.734375 L 6.125 -14.734375 Z M 6.125 0 "/></g></g><g transform="translate(858.929217, 617.251478)"><g><path d="M 8.3125 -2.9375 C 9.019531 -2.9375 9.863281 -3.09375 10.84375 -3.40625 L 10.84375 -0.40625 C 9.84375 0.0390625 8.613281 0.265625 7.15625 0.265625 C 5.550781 0.265625 4.378906 -0.140625 3.640625 -0.953125 C 2.910156 -1.765625 2.546875 -2.984375 2.546875 -4.609375 L 2.546875 -11.71875 L 0.625 -11.71875 L 0.625 -13.40625 L 2.828125 -14.75 L 4 -17.859375 L 6.5625 -17.859375 L 6.5625 -14.734375 L 10.6875 -14.734375 L 10.6875 -11.71875 L 6.5625 -11.71875 L 6.5625 -4.609375 C 6.5625 -4.035156 6.722656 -3.613281 7.046875 -3.34375 C 7.367188 -3.070312 7.789062 -2.9375 8.3125 -2.9375 Z M 8.3125 -2.9375 "/></g></g><g transform="translate(870.645745, 617.251478)"><g><path d="M 18.203125 0 L 14.140625 0 L 14.140625 -8.3125 L 6.515625 -8.3125 L 6.515625 0 L 2.421875 0 L 2.421875 -19.265625 L 6.515625 -19.265625 L 6.515625 -11.71875 L 14.140625 -11.71875 L 14.140625 -19.265625 L 18.203125 -19.265625 Z M 18.203125 0 "/></g></g><g transform="translate(891.297938, 617.251478)"><g><path d="M 12.546875 0 L 12 -1.890625 L 11.796875 -1.890625 C 11.359375 -1.203125 10.742188 -0.671875 9.953125 -0.296875 C 9.171875 0.078125 8.273438 0.265625 7.265625 0.265625 C 5.535156 0.265625 4.226562 -0.195312 3.34375 -1.125 C 2.46875 -2.050781 2.03125 -3.382812 2.03125 -5.125 L 2.03125 -14.734375 L 6.046875 -14.734375 L 6.046875 -6.125 C 6.046875 -5.0625 6.234375 -4.265625 6.609375 -3.734375 C 6.992188 -3.203125 7.597656 -2.9375 8.421875 -2.9375 C 9.546875 -2.9375 10.359375 -3.3125 10.859375 -4.0625 C 11.359375 -4.8125 11.609375 -6.054688 11.609375 -7.796875 L 11.609375 -14.734375 L 15.625 -14.734375 L 15.625 0 Z M 12.546875 0 "/></g></g><g transform="translate(909.037474, 617.251478)"><g><path d="M 10.296875 -15 C 12.035156 -15 13.394531 -14.320312 14.375 -12.96875 C 15.363281 -11.613281 15.859375 -9.753906 15.859375 -7.390625 C 15.859375 -4.953125 15.347656 -3.066406 14.328125 -1.734375 C 13.316406 -0.398438 11.941406 0.265625 10.203125 0.265625 C 8.472656 0.265625 7.113281 -0.363281 6.125 -1.625 L 5.84375 -1.625 L 5.171875 0 L 2.109375 0 L 2.109375 -20.5 L 6.125 -20.5 L 6.125 -15.734375 C 6.125 -15.128906 6.070312 -14.15625 5.96875 -12.8125 L 6.125 -12.8125 C 7.0625 -14.269531 8.453125 -15 10.296875 -15 Z M 9.015625 -11.796875 C 8.023438 -11.796875 7.300781 -11.488281 6.84375 -10.875 C 6.382812 -10.269531 6.144531 -9.265625 6.125 -7.859375 L 6.125 -7.421875 C 6.125 -5.835938 6.359375 -4.703125 6.828125 -4.015625 C 7.296875 -3.328125 8.039062 -2.984375 9.0625 -2.984375 C 9.882812 -2.984375 10.539062 -3.363281 11.03125 -4.125 C 11.519531 -4.882812 11.765625 -5.988281 11.765625 -7.4375 C 11.765625 -8.894531 11.519531 -9.984375 11.03125 -10.703125 C 10.539062 -11.429688 9.867188 -11.796875 9.015625 -11.796875 Z M 9.015625 -11.796875 "/></g></g></g></svg>