<svg xmlns="http://www.w3.org/2000/svg" xmlns:xlink="http://www.w3.org/1999/xlink" width="2245" zoomAndPan="magnify" viewBox="0 0 1683.75 2384.249895" height="3179" preserveAspectRatio="xMidYMid meet" version="1.0"><defs><clipPath id="87e02bb0ee"><path d="M 626 227.492188 L 932 227.492188 L 932 828 L 626 828 Z M 626 227.492188 " clip-rule="nonzero"/></clipPath></defs><path fill="#4e7896" d="M 733.085938 545.980469 C 733.085938 545.980469 717.246094 555.609375 744.101562 558.359375 C 776.464844 562.488281 793.679688 561.800781 829.484375 554.921875 C 829.484375 554.921875 839.125 561.113281 852.207031 565.929688 C 771.644531 600.320312 669.734375 563.863281 733.085938 545.980469 Z M 722.757812 501.269531 C 722.757812 501.269531 705.542969 514.335938 732.398438 517.089844 C 767.515625 520.53125 795.058594 521.21875 842.570312 511.585938 C 842.570312 511.585938 848.765625 518.464844 859.09375 521.90625 C 762.007812 550.796875 653.207031 524.65625 722.753906 501.269531 Z M 912.808594 579.675781 C 912.808594 579.675781 924.511719 589.308594 899.722656 596.875 C 853.589844 610.632812 706.238281 614.757812 664.917969 596.875 C 650.457031 590.6875 678 581.742188 686.953125 580.367188 C 695.902344 578.300781 700.722656 578.300781 700.722656 578.300781 C 684.886719 567.296875 595.371094 601.003906 655.277344 610.632812 C 819.84375 637.457031 955.492188 598.9375 912.804688 579.675781 Z M 740.664062 454.484375 C 740.664062 454.484375 665.613281 472.371094 713.8125 478.5625 C 734.46875 481.3125 775.09375 480.625 812.964844 477.871094 C 843.949219 475.121094 874.9375 469.617188 874.9375 469.617188 C 874.9375 469.617188 863.921875 474.429688 856.347656 479.246094 C 779.914062 499.195312 633.253906 490.253906 675.25 469.617188 C 711.054688 452.421875 740.664062 454.484375 740.664062 454.484375 Z M 874.9375 529.464844 C 952.054688 489.566406 916.25 451.046875 891.460938 455.863281 C 885.265625 457.238281 882.511719 458.613281 882.511719 458.613281 C 882.511719 458.613281 884.574219 454.484375 889.394531 453.109375 C 938.285156 435.914062 976.84375 504.699219 873.558594 531.523438 C 873.558594 531.523438 874.25 530.835938 874.9375 529.460938 Z M 748.238281 638.144531 C 822.601562 642.960938 936.203125 635.394531 938.976562 600.3125 C 938.976562 600.3125 933.46875 614.070312 877.695312 624.386719 C 814.347656 636.082031 735.851562 634.707031 689.726562 627.140625 C 689.726562 627.140625 699.367188 635.394531 748.257812 638.144531 Z M 748.238281 638.144531 " fill-opacity="1" fill-rule="nonzero"/><g clip-path="url(#87e02bb0ee)"><path fill="#f58219" d="M 828.105469 227.492188 C 828.105469 227.492188 870.796875 270.824219 787.480469 336.171875 C 720.691406 389.140625 772.332031 419.40625 787.480469 453.796875 C 748.230469 418.71875 720 387.761719 739.28125 358.875 C 767.515625 316.226562 845.332031 295.605469 828.113281 227.492188 Z M 806.085938 424.914062 C 826.054688 447.613281 800.578125 468.25 800.578125 468.25 C 800.578125 468.25 851.53125 442.109375 828.121094 409.78125 C 806.773438 378.828125 790.25 363.695312 879.761719 312.117188 C 879.761719 312.117188 738.605469 347.199219 806.085938 424.925781 Z M 755.121094 794.285156 L 755.121094 726.875 C 755.121094 709.679688 745.480469 697.984375 721.382812 697.984375 C 707.609375 697.984375 695.90625 701.421875 685.578125 705.539062 L 689.019531 717.921875 C 696.582031 715.167969 706.234375 712.417969 716.5625 712.417969 C 729.644531 712.417969 735.84375 717.921875 735.84375 728.925781 L 735.84375 737.867188 L 728.957031 737.867188 C 695.90625 737.867188 680.757812 750.25 680.757812 770.199219 C 680.757812 786.707031 691.085938 796.335938 709.679688 796.335938 C 721.382812 796.335938 730.335938 790.832031 738.597656 783.953125 L 739.976562 794.273438 L 755.125 794.273438 Z M 735.839844 772.277344 C 728.957031 778.46875 721.382812 781.90625 714.496094 781.90625 C 705.542969 781.90625 700.035156 776.402344 700.035156 766.773438 C 700.035156 757.140625 705.546875 750.261719 727.578125 750.261719 L 735.84375 750.261719 L 735.84375 772.261719 Z M 819.847656 794.285156 L 795.75 794.285156 L 766.832031 700.046875 L 787.488281 700.046875 L 805.390625 757.828125 L 809.523438 775.027344 C 818.472656 750.261719 825.359375 724.8125 828.113281 700.046875 L 848.773438 700.046875 C 843.261719 731.003906 833.621094 764.707031 819.851562 794.285156 Z M 931.394531 794.285156 L 931.394531 726.875 C 931.394531 709.679688 921.757812 697.984375 897.65625 697.984375 C 883.882812 697.984375 872.179688 701.421875 861.851562 705.539062 L 864.605469 717.921875 C 872.867188 715.167969 882.507812 712.417969 892.835938 712.417969 C 905.921875 712.417969 912.117188 717.921875 912.117188 728.925781 L 912.117188 737.867188 L 905.230469 737.867188 C 872.179688 737.867188 857.03125 750.25 857.03125 770.199219 C 857.03125 786.707031 866.671875 796.335938 885.261719 796.335938 C 897.65625 796.335938 906.609375 790.832031 914.871094 783.953125 L 916.246094 794.273438 L 931.394531 794.273438 Z M 912.117188 772.277344 C 905.230469 778.46875 897.65625 781.90625 890.769531 781.90625 C 881.820312 781.90625 876.3125 776.402344 876.3125 766.773438 C 876.3125 757.140625 881.820312 750.261719 903.855469 750.261719 L 912.117188 750.261719 Z M 659.414062 810.109375 C 653.90625 818.363281 645.644531 824.554688 635.316406 827.992188 L 626.359375 816.996094 C 633.242188 812.867188 640.128906 806.675781 642.882812 801.171875 C 645.636719 796.355469 646.328125 789.476562 646.328125 773.65625 L 646.328125 666.351562 L 666.984375 666.351562 L 666.984375 772.285156 C 666.984375 793.605469 664.921875 801.859375 659.425781 810.117188 Z M 659.414062 810.109375 " fill-opacity="1" fill-rule="nonzero"/></g></svg>